<?xml version="1.0" standalone="no"?>
<!DOCTYPE svg PUBLIC "-//W3C//DTD SVG 20010904//EN"
 "http://www.w3.org/TR/2001/REC-SVG-20010904/DTD/svg10.dtd">
<svg version="1.0" xmlns="http://www.w3.org/2000/svg"
 width="800.000000pt" height="800.000000pt" viewBox="0 0 800.000000 800.000000"
 preserveAspectRatio="xMidYMid meet">
<metadata>
Created by potrace 1.14, written by Peter Selinger 2001-2017
</metadata>
<g transform="translate(0.000000,800.000000) scale(0.100000,-0.100000)"
fill="#000000" stroke="none">
<path d="M5377 5653 c-1 -1 -729 -4 -1617 -7 -2029 -8 -1978 -8 -2022 -18
-207 -46 -343 -253 -305 -463 7 -42 71 -186 97 -220 4 -5 18 -30 32 -55 14
-25 63 -112 110 -195 47 -82 96 -170 110 -195 14 -25 35 -63 48 -85 12 -22 38
-69 58 -105 19 -36 38 -69 42 -75 4 -5 40 -68 80 -140 119 -212 122 -217 151
-267 16 -27 29 -51 29 -53 0 -2 32 -59 71 -127 71 -123 110 -193 157 -278 13
-25 32 -58 42 -75 10 -16 29 -50 42 -75 14 -25 113 -200 220 -390 107 -190
210 -372 228 -405 18 -33 59 -105 90 -160 32 -55 90 -158 130 -230 41 -71 90
-159 110 -195 20 -36 49 -87 65 -115 273 -488 299 -527 395 -579 76 -41 184
-58 266 -40 121 25 197 78 271 189 21 33 83 132 137 220 53 88 101 167 107
175 5 8 27 44 48 80 85 139 206 338 391 640 293 477 455 742 471 770 8 14 16
27 19 30 6 6 23 34 50 80 26 45 34 59 346 565 58 94 108 177 111 185 4 8 9 17
13 20 3 3 26 39 50 80 25 41 89 146 142 233 54 87 98 163 98 168 0 5 3 9 8 9
4 0 12 10 18 23 6 12 48 83 94 157 45 74 106 173 134 220 27 47 53 87 57 90 3
3 18 35 33 72 27 68 35 156 20 223 -3 17 -7 35 -8 42 -6 34 -57 114 -102 159
-45 46 -154 115 -154 98 0 -4 -7 0 -17 7 -13 11 -103 14 -490 14 -261 0 -475
-1 -476 -2z"/>
</g>
</svg>
